<?xml version="1.0" ?><svg fill="none" height="24" viewBox="0 0 24 24" width="24" xmlns="http://www.w3.org/2000/svg"><path clip-rule="evenodd" d="M15 13H3V11H15V13Z" fill="black" fill-rule="evenodd"/><path clip-rule="evenodd" d="M12.2072 7.79291L15.7072 11.2929C16.0977 11.6834 16.0977 12.3166 15.7072 12.7071L12.2072 16.2071L10.793 14.7929L13.5859 12L10.793 9.20712L12.2072 7.79291Z" fill="black" fill-rule="evenodd"/><path clip-rule="evenodd" d="M8 4C8 3.44772 8.44772 3 9 3H21C21.5523 3 22 3.44772 22 4V20C22 20.5523 21.5523 21 21 21H9C8.44772 21 8 20.5523 8 20V17H10V19H20V5H10V7H8V4Z" fill="black" fill-rule="evenodd"/></svg>